<svg xmlns="http://www.w3.org/2000/svg" width="362.5" height="507.9" viewBox="0 0 362.5 507.9"><g transform="translate(-34 -212)"><g transform="translate(34 212)" fill="#f9fffc" stroke="#23302d" stroke-width="1"><rect width="362.5" height="507.9" rx="27" stroke="none"/><rect x="0.5" y="0.5" width="361.5" height="506.9" rx="26.5" fill="none"/></g><g transform="translate(34 212)" fill="none"><path d="M310.107,483.9H52.893c.071-.789.107-1.6.107-2.4A26.53,26.53,0,0,0,26.5,455c-.832,0-1.673.039-2.5.116V52.884c.822.077,1.663.116,2.5.116A26.531,26.531,0,0,0,53,26.5c0-.5-.014-1-.042-1.5H310.041c-.027.491-.042,1-.042,1.5A26.531,26.531,0,0,0,336.5,53c.665,0,1.338-.025,2-.074V455.075c-.657-.049-1.329-.074-2-.074A26.53,26.53,0,0,0,310,481.5c0,.8.036,1.606.107,2.4Z" stroke="none"/><path d="M 309.0348205566406 482.9003601074219 C 309.0114135742188 482.43359375 308.9996032714844 481.9654235839844 308.9996032714844 481.5000610351562 C 308.9996032714844 466.3367004394531 321.3363037109375 454.0004272460938 336.5001220703125 454.0004272460938 C 336.8324890136719 454.0004272460938 337.1664733886719 454.0064392089844 337.4999694824219 454.0183715820312 L 337.4999694824219 53.9821662902832 C 337.1663513183594 53.99411392211914 336.8323974609375 54.00012588500977 336.5001220703125 54.00012588500977 C 321.3363037109375 54.00012588500977 308.9996032714844 41.66342163085938 308.9996032714844 26.49959564208984 C 308.9996032714844 26.33376121520996 309.0011291503906 26.1671257019043 309.0041198730469 26.000244140625 L 53.99563598632812 26.000244140625 C 53.99863052368164 26.16705513000488 54.00013732910156 26.33364677429199 54.00013732910156 26.49959564208984 C 54.00013732910156 41.66342163085938 41.66343307495117 54.00012588500977 26.49960708618164 54.00012588500977 C 26.00140190124512 54.00012588500977 25.50012969970703 53.98659515380859 25.00031471252441 53.95973205566406 L 25.00031471252441 454.040771484375 C 25.49985694885254 454.0139465332031 26.00120544433594 454.0004272460938 26.49960708618164 454.0004272460938 C 41.66343307495117 454.0004272460938 54.00013732910156 466.3367004394531 54.00013732910156 481.5000610351562 C 54.00013732910156 481.9656066894531 53.98833084106445 482.4338073730469 53.96492385864258 482.9003601074219 L 309.0348205566406 482.9003601074219 M 310.1069030761719 483.9003601074219 L 310.1057739257812 483.9003601074219 L 310.1069030761719 483.9003601074219 Z M 310.1069030761719 483.9003601074219 L 52.89284133911133 483.9003601074219 C 52.96366500854492 483.1116027832031 53.00013732910156 482.3043518066406 53.00013732910156 481.5000610351562 C 53.00013732910156 466.8880615234375 41.11207962036133 455.0004272460938 26.49960708618164 455.0004272460938 C 25.66725540161133 455.0004272460938 24.82631301879883 455.03955078125 24.00031471252441 455.11669921875 L 24.00031471252441 52.88377380371094 C 24.82278442382812 52.96059799194336 25.66325569152832 53.00012588500977 26.49960708618164 53.00012588500977 C 41.11207962036133 53.00012588500977 53.00013732910156 41.11200714111328 53.00013732910156 26.49959564208984 C 53.00013732910156 26.00165557861328 52.98608016967773 25.49718475341797 52.95831298828125 25.000244140625 L 310.0413818359375 25.000244140625 C 310.0140075683594 25.49136161804199 309.9996032714844 25.9954776763916 309.9996032714844 26.49959564208984 C 309.9996032714844 41.11200714111328 321.8876647949219 53.00012588500977 336.5001220703125 53.00012588500977 C 337.1652526855469 53.00012588500977 337.8380737304688 52.97512435913086 338.4999694824219 52.92571258544922 L 338.4999694824219 455.0748291015625 C 337.84326171875 455.0257873535156 337.1707153320312 455.0004272460938 336.5001220703125 455.0004272460938 C 321.8876647949219 455.0004272460938 309.9996032714844 466.8880615234375 309.9996032714844 481.5000610351562 C 309.9996032714844 482.2988891601562 310.0356750488281 483.1060791015625 310.1067810058594 483.8992309570312 L 310.1069030761719 483.9003601074219 Z" stroke="none" fill="#23302d"/></g><g transform="translate(158.117 252.23)"><g transform="translate(0 7.512) rotate(-13)"><g transform="translate(0 0)"><path d="M32.963,26.3l.431-21.9A17.967,17.967,0,0,0,31.178,3.1,31.458,31.458,0,0,0,17.018,0C7.6,0,1.782,3.492.433,4.4L0,26.312C-.115,32.218,7.485,39.33,12.783,41.99a8.417,8.417,0,0,0,3.351,1.053C20.672,43.048,32.815,33.743,32.963,26.3ZM24.619,11.96a4.666,4.666,0,0,1,2.107.493,5.889,5.889,0,0,1,2.543,2.7s-3,0-4.714,0-4.712,0-4.712,0S21.311,11.96,24.619,11.96ZM8.848,15.141l-4.712,0S5.6,11.953,8.91,11.953a4.65,4.65,0,0,1,2.107.493,5.889,5.889,0,0,1,2.543,2.7ZM25.16,29.956a17.565,17.565,0,0,0-7.91-1.981,18.37,18.37,0,0,0-9.66,3.389s1.861-8.108,9.55-8.232a9.263,9.263,0,0,1,4.369.956c4.2,2.109,5.546,6.959,5.546,6.959A16.613,16.613,0,0,0,25.16,29.956Z" transform="translate(0)" fill="#23302d"/></g></g><path d="M16.97,0a35.47,35.47,0,0,0-11.4,1.85A24.335,24.335,0,0,0,.055,4.48L0,26.387c-.007,2.841,1.9,6.312,5.366,9.773,4.273,4.264,9.29,6.894,11.485,6.884a6.152,6.152,0,0,0,1.877-.39c5.283-1.82,15.051-9.818,15.067-16.431l.055-21.9C32.479,3.412,26.626-.042,16.97,0ZM8.053,11.908a4.952,4.952,0,0,1,1.611-.268,5.567,5.567,0,0,1,4.817,3.166l-4.825.021-4.824.021A6.033,6.033,0,0,1,8.053,11.908ZM20.479,31.138a10.125,10.125,0,0,1-3.378.527c-7.756-.033-9.134-7.974-9.134-7.974a15.973,15.973,0,0,0,9.1,3,20.3,20.3,0,0,0,6.616-1.135A17.7,17.7,0,0,0,26.557,24.3S25.377,29.451,20.479,31.138Zm4.186-15.88-4.825.021a6.033,6.033,0,0,1,3.221-2.943,5.006,5.006,0,0,1,1.611-.266,5.571,5.571,0,0,1,4.817,3.166S26.42,15.248,24.664,15.258Z" transform="translate(80.783 0) rotate(13)" fill="#23302d"/><g transform="translate(42.235 11.314)"><g transform="translate(0 0)"><path d="M12.125,14.348a7.005,7.005,0,0,1-4,1.281H4.6A1.512,1.512,0,0,0,3,17.23a1.512,1.512,0,0,0,1.6,1.6H8.123a10.06,10.06,0,0,0,5.923-1.921,1.722,1.722,0,0,0,.32-2.241A1.462,1.462,0,0,0,12.125,14.348Z" transform="translate(-3 0.38)" fill="#23302d"/><path d="M13.634,14.125a1.818,1.818,0,0,0,1.281-.48,6,6,0,0,1,4.8-2.241H21l-.48.48a1.548,1.548,0,0,0,0,2.241,1.548,1.548,0,0,0,2.241,0l3.2-3.2c.16-.16.32-.32.32-.48a1.754,1.754,0,0,0,0-1.281c-.16-.16-.16-.32-.32-.48l-3.2-3.2a1.585,1.585,0,0,0-2.241,2.241L21,8.2H19.717a9.96,9.96,0,0,0-7.364,3.362,1.556,1.556,0,0,0,.16,2.241A1.524,1.524,0,0,0,13.634,14.125Z" transform="translate(2.375 -5)" fill="#23302d"/><path d="M31.336,20.287l-3.2-3.2a1.585,1.585,0,0,0-2.241,2.241l.48.48h-2.4a6.351,6.351,0,0,1-5.763-3.682l-1.921-3.842A9.678,9.678,0,0,0,7.643,7H4.6A1.512,1.512,0,0,0,3,8.6a1.512,1.512,0,0,0,1.6,1.6H7.643a6.351,6.351,0,0,1,5.763,3.682l1.921,3.842a9.539,9.539,0,0,0,8.645,5.443h2.4l-.48.48a1.548,1.548,0,0,0,0,2.241,1.548,1.548,0,0,0,2.241,0l3.2-3.2A1.738,1.738,0,0,0,31.336,20.287Z" transform="translate(-3 -3.798)" fill="#23302d"/></g></g></g><circle cx="5" cy="5" r="5" transform="translate(57 686)" fill="#23302d"/><circle cx="5" cy="5" r="5" transform="translate(363 237)" fill="#23302d"/></g></svg>